<svg width="512" height="512" viewBox="0 0 501 524" fill="none" xmlns="http://www.w3.org/2000/svg">
<path fill-rule="evenodd" clip-rule="evenodd" d="M500.007 261.873C500.007 406.208 388.079 523.216 250.007 523.216C111.936 523.216 0.00732422 406.208 0.00732422 261.873C0.00732422 177.075 38.6406 101.711 98.5113 53.9636V160.867C98.5113 208.959 111.929 245.473 138.765 270.41C165.601 295.346 202.235 307.814 248.665 307.814C295.522 307.814 332.368 295.346 359.204 270.41C386.466 245.473 400.097 208.736 400.097 160.199V52.85C460.768 100.534 500.007 176.413 500.007 261.873ZM327.256 13.2453C302.929 4.99114 276.967 0.530273 250.007 0.530273C222.291 0.530273 195.628 5.24519 170.713 13.9496V149.512C170.713 209.627 196.697 239.684 248.665 239.684C301.059 239.684 327.256 209.627 327.256 149.512V13.2453Z" fill="#EB682B"/>
<path d="M249.266 371.542C370.491 371.542 468.763 288.835 468.763 186.811C468.763 84.7869 370.491 2.08015 249.266 2.08015C128.042 2.08015 29.7696 84.7869 29.7696 186.811C29.7696 288.835 128.042 371.542 249.266 371.542Z" fill="white" fill-opacity="0.08"/>
<path d="M245.022 34.9505C245.022 31.6827 245.825 29.1044 247.431 27.2156C249.037 25.3269 251.389 24.3825 254.486 24.3825L268.941 24.3825V29.4641L255.218 29.4641C251.346 29.4641 249.41 31.2929 249.41 34.9505C249.41 38.6381 251.346 40.4819 255.218 40.4819L268.941 40.4819V45.6085H254.529C251.403 45.6085 249.037 44.6491 247.431 42.7304C245.825 40.8416 245.022 38.2483 245.022 34.9505Z" fill="white" fill-opacity="0.9"/>
<path d="M259.089 62.6031C259.405 61.8835 259.563 61.3139 259.563 60.8942C259.563 59.8149 259.204 58.9005 258.487 58.151C257.799 57.4315 256.939 57.0717 255.906 57.0717L245.108 57.0717L245.108 52.9794H263.434V57.0717H261.283C263.004 58.6607 263.865 60.2646 263.865 61.8835C263.865 62.753 263.707 63.5175 263.391 64.177L259.089 62.6031Z" fill="white" fill-opacity="0.9"/>
<path d="M245.108 78.9754C245.108 76.8768 246.026 75.1829 247.862 73.8938H245.151L245.151 69.3518H267.908L269.457 73.8938H261.972C263.119 75.9025 263.692 77.7013 263.692 79.2902C263.692 82.0784 262.66 84.222 260.595 85.721C258.788 87.0101 256.48 87.6547 253.669 87.6547C251.088 87.6547 249.009 86.8752 247.431 85.3163C245.883 83.7873 245.108 81.6737 245.108 78.9754ZM259.434 80.5494C259.663 79.9198 259.778 79.1403 259.778 78.2109C259.778 76.2922 258.774 74.8532 256.766 73.8938H252.163C251.762 74.1036 251.059 74.6133 250.056 75.4228C249.224 76.2922 248.808 77.2216 248.808 78.2109C248.808 79.8299 249.253 81.104 250.142 82.0334C251.059 82.9928 252.293 83.4725 253.841 83.4725C256.852 83.4725 258.717 82.4981 259.434 80.5494Z" fill="white" fill-opacity="0.9"/>
<path d="M245.194 106.495H246.7C245.61 104.276 245.065 102.238 245.065 100.379C245.065 98.2803 245.582 96.6313 246.614 95.4321C247.675 94.2629 249.21 93.6783 251.217 93.6783C253.397 93.6783 255.06 94.4728 256.207 96.0617C257.211 97.4708 257.713 99.3445 257.713 101.683C257.713 103.242 257.283 104.846 256.422 106.495C259.462 106.435 260.982 104.906 260.982 101.908C260.982 100.319 260.609 98.9698 259.864 97.8605L262.359 96.4215C263.592 97.8905 264.209 99.9441 264.209 102.582C264.209 104.921 263.707 106.84 262.703 108.339C261.585 110.047 259.95 110.902 257.799 110.902H245.194L245.194 106.495ZM252.766 106.45C253.282 106.45 253.712 105.97 254.056 105.011C254.343 104.231 254.486 103.527 254.486 102.897C254.486 99.7793 253.44 98.2203 251.346 98.2203C250.428 98.2203 249.726 98.7 249.238 99.6593C248.865 100.409 248.679 101.308 248.679 102.358C248.679 102.837 248.88 103.632 249.281 104.741C249.711 105.88 250.099 106.45 250.443 106.45H252.766Z" fill="white" fill-opacity="0.9"/>
<path d="M245.108 130.751H255.519C256.723 130.751 257.713 130.407 258.487 129.717C259.262 129.028 259.649 128.068 259.649 126.839C259.649 125.61 259.247 124.546 258.444 123.646C257.67 122.777 256.695 122.342 255.519 122.342H245.108L245.108 117.845L263.391 117.845V122.342H261.197C262.861 124.201 263.692 126.224 263.692 128.413C263.692 130.482 263.105 132.146 261.929 133.405C260.753 134.664 259.175 135.293 257.197 135.293H245.108L245.108 130.751Z" fill="white" fill-opacity="0.9"/>
<path d="M265.37 143.846C265.37 143.156 265.6 142.557 266.058 142.047C266.517 141.567 267.077 141.328 267.736 141.328C268.424 141.328 268.998 141.567 269.457 142.047C269.916 142.527 270.145 143.126 270.145 143.846C270.145 144.565 269.916 145.165 269.457 145.645C268.998 146.124 268.424 146.364 267.736 146.364C267.077 146.364 266.517 146.109 266.058 145.6C265.6 145.12 265.37 144.535 265.37 143.846ZM245.108 141.552H263.391V146.049H245.108L245.108 141.552Z" fill="white" fill-opacity="0.9"/>
<path d="M245.108 153.785H248.249L259.649 163.094V154.19H263.477V169.615H260.38L249.023 160.486L249.023 169.795H245.108L245.108 153.785Z" fill="white" fill-opacity="0.9"/>
<path d="M245.194 190.068H246.7C245.61 187.849 245.065 185.81 245.065 183.952C245.065 181.853 245.582 180.204 246.614 179.005C247.675 177.836 249.21 177.251 251.217 177.251C253.397 177.251 255.06 178.046 256.207 179.635C257.211 181.044 257.713 182.917 257.713 185.256C257.713 186.815 257.283 188.419 256.422 190.068C259.462 190.008 260.982 188.479 260.982 185.481C260.982 183.892 260.609 182.543 259.864 181.433L262.359 179.994C263.592 181.463 264.209 183.517 264.209 186.155C264.209 188.494 263.707 190.412 262.703 191.911C261.585 193.62 259.95 194.475 257.799 194.475H245.194L245.194 190.068ZM252.766 190.023C253.282 190.023 253.712 189.543 254.056 188.584C254.343 187.804 254.486 187.1 254.486 186.47C254.486 183.352 253.44 181.793 251.346 181.793C250.428 181.793 249.726 182.273 249.238 183.232C248.865 183.982 248.679 184.881 248.679 185.93C248.679 186.41 248.88 187.205 249.281 188.314C249.711 189.453 250.099 190.023 250.443 190.023H252.766Z" fill="white" fill-opacity="0.9"/>
</svg>
